<svg xmlns="http://www.w3.org/2000/svg" width="32" height="32" viewBox="0 0 32 32">
  <defs>
    <linearGradient id="bg" x1="0%" y1="0%" x2="100%" y2="100%">
      <stop offset="0%" style="stop-color:#1e3a5f"/>
      <stop offset="100%" style="stop-color:#0f172a"/>
    </linearGradient>
  </defs>
  
  <!-- Dark gradient hexagon background -->
  <polygon fill="url(#bg)" points="16,0 32,8 32,24 16,32 0,24 0,8"/>
  
  <!-- Honeycomb pattern - 7 small hexagons -->
  <g fill="none" stroke="white" stroke-width="1.2">
    <!-- Center -->
    <polygon points="16,11 20,13.5 20,18.5 16,21 12,18.5 12,13.5"/>
    <!-- Top -->
    <polygon points="16,3 20,5.5 20,10.5 16,13 12,10.5 12,5.5"/>
    <!-- Top Right -->
    <polygon points="24,7 28,9.5 28,14.5 24,17 20,14.5 20,9.5"/>
    <!-- Bottom Right -->
    <polygon points="24,15 28,17.5 28,22.5 24,25 20,22.5 20,17.5"/>
    <!-- Bottom -->
    <polygon points="16,19 20,21.5 20,26.5 16,29 12,26.5 12,21.5"/>
    <!-- Bottom Left -->
    <polygon points="8,15 12,17.5 12,22.5 8,25 4,22.5 4,17.5"/>
    <!-- Top Left -->
    <polygon points="8,7 12,9.5 12,14.5 8,17 4,14.5 4,9.5"/>
  </g>
</svg>
