<?xml version="1.0" standalone="no"?>
<!DOCTYPE svg PUBLIC "-//W3C//DTD SVG 20010904//EN"
 "http://www.w3.org/TR/2001/REC-SVG-20010904/DTD/svg10.dtd">
<svg version="1.0" xmlns="http://www.w3.org/2000/svg"
 width="64" height="64" viewBox="5200 700 3800 3800"
 preserveAspectRatio="xMidYMid meet">

<defs>
  <linearGradient id="navyToGray" x1="0%" y1="0%" x2="100%" y2="100%">
    <stop offset="0%" style="stop-color:#1e3a5f;stop-opacity:1" />
    <stop offset="100%" style="stop-color:#6b7280;stop-opacity:1" />
  </linearGradient>
</defs>

<g transform="translate(0.000000,7360.000000) scale(1,-1)"
fill="url(#navyToGray)" stroke="none">
<path d="M6924 6250 c-119 -22 -191 -60 -1339 -718 -93 -53 -203 -160 -253
-244 -43 -72 -79 -177 -92 -264 -13 -96 -13 -1320 1 -1420 31 -224 150 -400
349 -516 205 -119 998 -568 1014 -574 15 -6 16 6 14 142 l-3 149 -477 270
c-298 169 -492 285 -517 309 -22 21 -53 64 -70 96 -61 115 -61 110 -61 835 0
706 0 708 51 811 55 110 86 132 619 435 272 154 540 307 595 338 130 74 175
91 255 98 122 10 138 3 797 -372 532 -302 615 -352 661 -401 28 -30 61 -73 72
-94 49 -96 50 -110 50 -815 0 -717 0 -716 -56 -827 -53 -104 -94 -133 -598
-417 -257 -146 -470 -270 -472 -276 -3 -6 -3 -75 -2 -152 l3 -142 529 304
c291 166 556 322 588 346 97 71 188 200 231 329 35 104 38 192 35 885 -4 762
-1 723 -80 885 -33 67 -58 101 -122 164 -78 77 -101 91 -701 433 -470 268
-639 360 -700 379 -90 28 -236 39 -321 24z"/>
<path d="M6425 5054 c-330 -183 -606 -337 -613 -341 -10 -6 -12 -43 -10 -155
l3 -148 200 111 c110 61 356 198 546 305 190 107 349 194 352 194 4 0 7 -598
7 -1329 l0 -1330 56 -7 c57 -7 176 0 194 11 6 4 10 496 10 1331 0 728 3 1324
6 1324 6 0 94 -48 739 -409 197 -111 363 -201 367 -201 5 0 7 66 6 147 l-3
147 -615 342 c-338 189 -622 343 -630 343 -8 0 -285 -151 -615 -335z"/>
</g>
</svg>
