<?xml version="1.0" standalone="no"?>
<!DOCTYPE svg PUBLIC "-//W3C//DTD SVG 20010904//EN"
 "http://www.w3.org/TR/2001/REC-SVG-20010904/DTD/svg10.dtd">
<svg version="1.0" xmlns="http://www.w3.org/2000/svg"
 width="1408.000000pt" height="736.000000pt" viewBox="0 0 1408.000000 736.000000"
 preserveAspectRatio="xMidYMid meet">

<defs>
  <linearGradient id="navyToGray" x1="0%" y1="0%" x2="100%" y2="100%">
    <stop offset="0%" style="stop-color:#1e3a5f;stop-opacity:1" />
    <stop offset="100%" style="stop-color:#6b7280;stop-opacity:1" />
  </linearGradient>
</defs>

<g transform="translate(0.000000,736.000000) scale(0.100000,-0.100000)"
fill="url(#navyToGray)" stroke="none">
<path d="M6924 6250 c-119 -22 -191 -60 -1339 -718 -93 -53 -203 -160 -253
-244 -43 -72 -79 -177 -92 -264 -13 -96 -13 -1320 1 -1420 31 -224 150 -400
349 -516 205 -119 998 -568 1014 -574 15 -6 16 6 14 142 l-3 149 -477 270
c-298 169 -492 285 -517 309 -22 21 -53 64 -70 96 -61 115 -61 110 -61 835 0
706 0 708 51 811 55 110 86 132 619 435 272 154 540 307 595 338 130 74 175
91 255 98 122 10 138 3 797 -372 532 -302 615 -352 661 -401 28 -30 61 -73 72
-94 49 -96 50 -110 50 -815 0 -717 0 -716 -56 -827 -53 -104 -94 -133 -598
-417 -257 -146 -470 -270 -472 -276 -3 -6 -3 -75 -2 -152 l3 -142 529 304
c291 166 556 322 588 346 97 71 188 200 231 329 35 104 38 192 35 885 -4 762
-1 723 -80 885 -33 67 -58 101 -122 164 -78 77 -101 91 -701 433 -470 268
-639 360 -700 379 -90 28 -236 39 -321 24z"/>
<path d="M6425 5054 c-330 -183 -606 -337 -613 -341 -10 -6 -12 -43 -10 -155
l3 -148 200 111 c110 61 356 198 546 305 190 107 349 194 352 194 4 0 7 -598
7 -1329 l0 -1330 56 -7 c57 -7 176 0 194 11 6 4 10 496 10 1331 0 728 3 1324
6 1324 6 0 94 -48 739 -409 197 -111 363 -201 367 -201 5 0 7 66 6 147 l-3
147 -615 342 c-338 189 -622 343 -630 343 -8 0 -285 -151 -615 -335z"/>
<path d="M5095 1895 c-14 -13 -25 -36 -25 -50 0 -38 42 -75 85 -75 45 0 75 29
75 73 0 70 -85 103 -135 52z"/>
<path d="M4520 1530 l0 -360 65 0 65 0 0 360 0 360 -65 0 -65 0 0 -360z"/>
<path d="M4800 1530 l0 -360 65 0 65 0 0 360 0 360 -65 0 -65 0 0 -360z"/>
<path d="M10640 1530 l0 -360 35 0 35 0 0 77 0 77 51 48 c28 26 54 48 58 48 4
0 47 -56 96 -125 l89 -125 43 0 43 0 -110 153 -109 152 102 103 102 102 -45 0
c-45 0 -47 -2 -175 -130 -71 -71 -133 -130 -137 -130 -5 0 -8 106 -8 235 l0
235 -35 0 -35 0 0 -360z"/>
<path d="M2920 1795 l0 -55 105 0 105 0 0 -285 0 -285 71 0 70 0 -1 258 c-1
141 -1 269 -1 285 l1 27 105 0 105 0 0 55 0 55 -280 0 -280 0 0 -55z"/>
<path d="M5890 1510 l0 -340 35 0 35 0 0 145 0 145 165 0 165 0 0 36 0 35
-162 -2 -163 -2 -3 132 -3 131 186 0 185 0 0 30 0 30 -220 0 -220 0 0 -340z"/>
<path d="M3750 1674 c-19 -8 -45 -25 -57 -36 l-23 -21 0 31 0 32 -65 0 -65 0
0 -255 0 -255 65 0 65 0 0 151 c0 135 2 155 20 184 23 37 74 65 119 65 l31 0
0 60 c0 59 -1 60 -27 60 -16 -1 -44 -8 -63 -16z"/>
<path d="M4059 1676 c-59 -21 -107 -64 -136 -124 -55 -113 -28 -255 64 -331
95 -79 261 -81 361 -5 l34 26 -37 38 -37 38 -35 -24 c-74 -50 -200 -27 -231
41 -7 14 -12 30 -12 35 0 6 76 10 190 10 l190 0 0 58 c0 101 -57 193 -145 233
-47 22 -152 25 -206 5z m160 -100 c30 -16 53 -46 65 -83 l7 -23 -135 0 c-75 0
-136 2 -136 5 0 3 9 23 19 44 33 63 116 89 180 57z"/>
<path d="M5446 1675 c-83 -29 -127 -106 -106 -184 18 -66 71 -99 190 -117 66
-10 100 -30 100 -59 0 -70 -138 -74 -262 -7 -5 2 -48 -80 -48 -93 0 -1 24 -13
53 -26 43 -20 69 -23 157 -24 92 0 110 3 146 24 73 42 104 133 69 201 -19 38
-73 65 -155 80 -36 7 -80 18 -98 26 -28 11 -33 18 -30 41 4 40 40 55 114 50
34 -3 76 -11 93 -20 l31 -15 20 45 c11 25 17 49 14 54 -21 34 -215 50 -288 24z"/>
<path d="M6627 1676 c-40 -15 -62 -30 -89 -61 -17 -19 -17 -19 -18 23 0 41 -1
42 -35 42 l-35 0 0 -255 0 -255 35 0 35 0 0 163 c0 139 3 167 19 197 23 44 72
78 123 87 37 5 39 8 36 37 -4 36 -18 41 -71 22z"/>
<path d="M6905 1675 c-27 -8 -53 -14 -56 -15 -4 0 -18 -9 -33 -21 -25 -19 -25
-35 -2 -66 1 -1 24 9 51 22 36 19 64 25 112 25 55 0 67 -4 94 -28 25 -23 33
-38 36 -79 l5 -50 -119 -5 c-101 -3 -125 -7 -155 -26 -91 -56 -89 -200 3 -248
74 -38 198 -25 244 26 25 28 35 25 35 -10 0 -27 3 -30 30 -30 l30 0 0 183 c-1
225 -15 273 -90 312 -41 21 -130 26 -185 10z m205 -319 c0 -86 -55 -136 -150
-136 -97 0 -154 81 -102 147 26 33 58 42 160 42 l92 1 0 -54z"/>
<path d="M7516 1676 c-21 -8 -51 -27 -67 -42 l-29 -28 0 37 c0 34 -2 37 -30
37 l-30 0 0 -255 0 -255 29 0 29 0 4 168 c3 154 5 170 26 208 31 53 68 74 130
74 35 0 57 -6 77 -22 48 -37 55 -71 55 -258 l0 -170 34 0 34 0 4 173 c3 160 5
175 26 210 30 48 68 67 132 67 43 0 55 -5 88 -34 l37 -34 3 -191 3 -191 35 0
34 0 0 178 c0 97 -5 195 -11 217 -39 138 -253 168 -343 47 l-25 -34 -15 30
c-33 64 -148 98 -230 68z"/>
<path d="M8439 1675 c-50 -16 -109 -67 -136 -118 -21 -41 -29 -169 -13 -226
18 -66 99 -144 169 -161 89 -21 195 4 243 57 17 19 17 20 -6 42 -21 20 -24 20
-36 6 -33 -40 -113 -60 -174 -44 -58 16 -95 45 -117 93 -36 79 -44 76 182 76
l202 0 -6 58 c-9 105 -73 191 -161 217 -60 18 -87 18 -147 0z m167 -75 c32
-20 74 -90 74 -123 0 -15 -17 -17 -166 -17 l-166 0 6 31 c23 118 149 172 252
109z"/>
<path d="M9818 1677 c-65 -19 -112 -58 -142 -119 -109 -225 60 -450 288 -384
170 50 233 278 117 425 -57 71 -168 104 -263 78z m153 -73 c82 -41 123 -168
84 -262 -32 -76 -86 -112 -168 -112 -121 0 -202 120 -168 250 32 122 145 178
252 124z"/>
<path d="M5090 1425 l0 -255 65 0 65 0 0 255 0 255 -65 0 -65 0 0 -255z"/>
<path d="M8810 1672 c0 -8 121 -365 156 -459 15 -40 18 -43 53 -43 35 0 39 3
49 38 25 81 127 362 132 362 3 0 37 -90 75 -200 l70 -200 36 0 37 0 80 233
c43 127 83 242 87 255 6 22 4 23 -26 20 l-32 -3 -70 -207 c-39 -114 -73 -205
-76 -202 -3 3 -38 96 -77 207 l-70 202 -35 3 -34 3 -69 -206 c-38 -113 -73
-208 -77 -210 -4 -3 -38 89 -76 203 l-70 207 -31 3 c-18 2 -32 -1 -32 -6z"/>
<path d="M10271 1425 l3 -255 33 0 33 0 0 141 c0 163 11 216 52 258 27 27 80
51 116 51 7 0 12 13 12 30 0 27 -3 30 -30 30 -46 0 -94 -24 -123 -61 l-27 -34
0 48 0 47 -36 0 -35 0 2 -255z"/>
</g>
</svg>
